<?xml version="1.0" encoding="UTF-8"?>
<svg id="Layer_2" data-name="Layer 2" xmlns="http://www.w3.org/2000/svg" xmlns:xlink="http://www.w3.org/1999/xlink" viewBox="0 0 276.25 202.83">
  <defs>
    <style>
      .cls-1 {
        letter-spacing: .08em;
      }

      .cls-1, .cls-2 {
        fill: #174a7c;
      }

      .cls-1, .cls-3 {
        font-family: GillSans-ExtraBold, GillSans-ExtraBold;
        font-size: 183.69px;
        font-weight: 700;
      }

      .cls-4, .cls-5 {
        fill: #fff;
      }

      .cls-5 {
        stroke: #fff;
        stroke-linecap: square;
        stroke-linejoin: bevel;
        stroke-width: .75px;
      }

      .cls-6 {
        fill: none;
      }

      .cls-3 {
        fill: #636466;
        letter-spacing: .08em;
      }

      .cls-7 {
        fill: #dedfe0;
      }

      .cls-8 {
        clip-path: url(#clippath);
      }
    </style>
    <clipPath id="clippath">
      <rect class="cls-6" y="26.65" width="263.96" height="150.55"/>
    </clipPath>
  </defs>
  <g class="cls-8">
    <g>
      <text class="cls-1" transform="translate(37.39 155.62) scale(1.02 1)"><tspan x="0" y="0">K</tspan></text>
      <text class="cls-3" transform="translate(135.15 154.48) scale(.98 1)"><tspan x="0" y="0">G</tspan></text>
      <rect class="cls-2" x="50.83" y="30.79" width="17.79" height="146.36"/>
      <path class="cls-7" d="M25.81,139.23c0-26.17,30.79-47.37,68.77-47.37,5.65,0,11.13.48,16.38,1.36-11.45-5.88-25.65-9.36-41.03-9.36C31.95,83.86,1.16,105.07,1.16,131.24c0,22.28,22.32,40.95,52.4,46.01-16.84-8.64-27.74-22.45-27.74-38.02Z"/>
      <rect class="cls-2" x="50.9" y="130.81" width="213.06" height="46.38"/>
      <g>
        <path class="cls-4" d="M65.76,146.8h2.05v7.51h1.79l7.42-7.51h2.69l-8.31,8.31,9.3,8.89h-2.8l-8.3-7.98h-1.79v7.98h-2.05v-17.21Z"/>
        <path class="cls-4" d="M81.01,152h1.91v7.87c0,1.06.18,1.79.53,2.2.36.4,1.06.59,2.09.59,1.46,0,2.49-.22,3.08-.66.59-.44.89-1.29.89-2.54v-7.46h1.91v12.01h-1.95v-1.67c-.26.56-.7,1-1.32,1.32-.62.31-1.48.47-2.57.47-1.51,0-2.65-.29-3.42-.88-.76-.59-1.15-1.75-1.15-3.47v-7.77Z"/>
        <path class="cls-4" d="M93.05,152h1.7v-2.87h1.91v2.87h4.91v1.47h-4.91v7.58c0,.63.12,1.06.35,1.29.24.22.7.32,1.36.32.74,0,1.25-.12,1.52-.37.28-.25.43-.74.43-1.46v-1.19h1.82v.96c0,2.35-1.23,3.52-3.7,3.52-1.55,0-2.55-.25-3.01-.76-.46-.52-.68-1.43-.68-2.73v-7.17h-1.7v-1.47Z"/>
        <path class="cls-4" d="M112.41,159.65h1.91v.68c0,1.53-.45,2.55-1.35,3.05-.89.5-2.2.75-3.93.75-2.49,0-4.07-.43-4.76-1.29-.68-.87-1.03-2.46-1.03-4.79,0-2.49.39-4.14,1.16-4.95.77-.81,2.25-1.22,4.44-1.22,1.93,0,3.29.29,4.07.87.79.58,1.18,1.53,1.18,2.88v.37h-1.91v-.41c0-.88-.21-1.48-.62-1.78-.41-.31-1.33-.46-2.78-.46-1.64,0-2.65.29-3.02.88-.36.58-.54,1.93-.54,4.03s.26,3.32.77,3.75c.51.43,1.57.65,3.16.65,1.37,0,2.25-.16,2.65-.47.4-.32.6-1.17.6-2.54Z"/>
        <path class="cls-4" d="M116.94,146.8h1.91v6.69c.5-1.08,1.82-1.61,3.97-1.61,1.77,0,3,.32,3.68.95.69.63,1.04,1.71,1.04,3.21v7.96h-1.91v-8c0-1.07-.21-1.78-.64-2.13-.42-.36-1.18-.54-2.3-.54-1.44,0-2.44.23-3,.68-.56.45-.84,1.44-.84,2.98v7h-1.91v-17.21Z"/>
        <path class="cls-4" d="M130.93,146.78h1.91v1.99h-1.91v-1.99ZM130.93,152h1.91v12.01h-1.91v-12.01Z"/>
        <path class="cls-4" d="M136.16,164.01v-12.01h1.91v1.49c.31-.61.77-1.03,1.37-1.27.6-.23,1.46-.35,2.6-.35,1.74,0,2.96.31,3.66.93.71.61,1.06,1.66,1.06,3.15v8.05h-1.91v-8.12c0-.9-.19-1.54-.58-1.94-.39-.4-1.2-.6-2.44-.6-1.42,0-2.41.24-2.95.73-.54.49-.8,1.45-.8,2.9v7.04h-1.91Z"/>
        <path class="cls-4" d="M151.62,160.19v.91c0,.67.27,1.1.8,1.29.54.19,1.66.28,3.35.28,1.05,0,1.78-.13,2.21-.38.42-.26.64-.78.64-1.55v-.37c0-1.02-.57-1.55-1.71-1.58l-.51-.03-3-.16c-2.44-.12-3.66-1.19-3.66-3.2,0-1.42.37-2.36,1.1-2.82.73-.46,2.19-.69,4.37-.69,1.8,0,3.08.19,3.85.57.77.38,1.17,1.12,1.21,2.23v.42h-1.97v-.4c0-.55-.16-.91-.5-1.09-.32-.18-.99-.27-2-.27h-1.16c-1.21,0-2,.12-2.37.35-.37.23-.55.67-.55,1.32v.54c0,.9.49,1.39,1.48,1.46l3.25.21.84.04c2.21.13,3.32,1.18,3.32,3.17v.27c0,1.14-.33,1.99-.99,2.57-.65.58-2.07.86-4.26.86s-3.59-.21-4.43-.64c-.84-.43-1.26-1.16-1.26-2.21v-1.1h1.97Z"/>
        <path class="cls-4" d="M174.14,154.11c-.64-.45-1.08-.92-1.31-1.41-.24-.5-.35-1.17-.35-2,0-1.56.43-2.63,1.29-3.2.86-.57,2.29-.86,4.3-.86s3.32.34,4.05,1.01c.74.66,1.11,1.77,1.11,3.3v1.09h-2.05v-.97c0-1.19-.19-1.93-.57-2.24-.38-.31-1.32-.46-2.83-.46-1.28,0-2.15.18-2.59.55-.43.37-.65.96-.65,1.79,0,.59.09,1.03.26,1.33.17.3.54.69,1.1,1.18l6.97,5.49c.02-.19.02-.56.02-1.1v-1.11h1.85c-.03.6-.04,1.18-.02,1.75.02.57-.03,1.21-.13,1.93l3.37,2.51-1.12,1.34-2.73-2.07c-.41.9-1.12,1.5-2.14,1.8-1.01.3-2.53.45-4.57.45-3.13,0-5.08-.4-5.84-1.19-.76-.8-1.15-2.26-1.15-4.37,0-1.56.24-2.62.71-3.19.47-.58,1.48-1.02,3.04-1.33ZM175.34,155.18c-1.35.32-2.16.68-2.46,1.08-.29.39-.44,1.2-.44,2.42,0,1.29.1,2.16.31,2.61.22.52.66.85,1.32.99.67.13,1.9.19,3.68.19,1.57,0,2.72-.13,3.44-.39.72-.26,1.16-.73,1.3-1.4l-7.16-5.49Z"/>
        <path class="cls-4" d="M205.47,157.13v-1.73h7.75v3.84c0,1.78-.43,3.05-1.3,3.81-.87.75-2.37,1.13-4.52,1.13h-2.42c-2.62,0-4.39-.44-5.3-1.33-.91-.89-1.36-2.48-1.36-4.77v-5.49c0-1.9.41-3.36,1.23-4.4.83-1.05,2.16-1.57,4.01-1.57h4.86c1.58,0,2.77.34,3.58,1.02.81.68,1.22,1.61,1.22,2.8v1.38h-2.05v-.99c0-.94-.24-1.59-.71-1.95-.47-.36-1.45-.54-2.92-.54h-2.89c-1.72,0-2.86.26-3.42.77-.57.52-.85,1.71-.85,3.57v5.75c0,1.48.29,2.52.86,3.12.57.6,1.74.9,3.48.9h2.26c1.7,0,2.82-.18,3.37-.55.55-.37.83-1.22.83-2.55v-2.23h-5.69Z"/>
        <path class="cls-4" d="M215.49,152h1.91v1.43c.24-.53.64-.92,1.2-1.18.57-.25,1.33-.38,2.29-.38,2.33,0,3.5,1.11,3.5,3.34v.93h-1.82v-.79c0-.73-.15-1.25-.46-1.55-.31-.31-.85-.46-1.64-.46-1.06,0-1.84.24-2.34.72-.49.47-.73,1.3-.73,2.49v7.46h-1.91v-12.01Z"/>
        <path class="cls-4" d="M226.02,158.01c0-2.52.35-4.17,1.04-4.95.7-.78,2.24-1.18,4.62-1.18s3.99.43,4.62,1.29c.64.85.96,2.48.96,4.88,0,2.55-.37,4.21-1.1,4.96-.72.75-2.22,1.12-4.48,1.12-2.58,0-4.17-.45-4.77-1.36-.59-.91-.88-2.5-.88-4.77ZM227.99,158.04c0,2.05.17,3.34.51,3.85.35.52,1.4.77,3.16.77s2.7-.27,3.06-.82c.37-.54.55-1.83.55-3.84s-.17-3.3-.52-3.84c-.35-.54-1.16-.82-2.44-.82h-.94c-1.74,0-2.74.35-3,1.05-.25.69-.38,1.91-.38,3.64Z"/>
        <path class="cls-4" d="M239.22,146.8h1.91v6.69c.5-1.08,1.82-1.61,3.97-1.61,1.77,0,3,.32,3.68.95.69.63,1.04,1.71,1.04,3.21v7.96h-1.91v-8c0-1.07-.21-1.78-.64-2.13-.42-.36-1.18-.54-2.3-.54-1.44,0-2.44.23-3,.68-.56.45-.84,1.44-.84,2.98v7h-1.91v-17.21Z"/>
      </g>
      <path class="cls-5" d="M104.72,81.46l2.81-.58,15.21,7.75s7.71-.12,9.18-.45c1.47-.33,12.05-3.06,12.05-3.06l.48-6.58-3.63-3.67.77-.17,4.33,3.13,4.96,5.57s21.58-4.13,22.96-4c1.39.12,4.47.46,4.86.72.4.26,2.83.62,2.97,1.11.14.49-3.86,3.89-7.47,4.89-3.61,1.01-12.56,3.07-14.92,3.71-2.37.64-5.12,1.6-5.6,1.79-.48.19.63-.15.87.51.23.66.37,1.09.37,1.09l-.04,1.78-.74.93-6.94,1.47-1.62-.79-.34-1.97-.08-.56-26.84,14.03-3.29.71-5.27-3.7,1.28-.12,5.79,2.68,21.36-12.95s-11.37,1.26-12.73,1.32c-1.36.06-4.88.17-6.7-.46-1.82-.63-12.98,3.7-12.98,3.7l9.44-5.29-10.47-12.52Z"/>
    </g>
  </g>
</svg>